<?xml version="1.0" standalone="no"?>
<!DOCTYPE svg PUBLIC "-//W3C//DTD SVG 20010904//EN"
 "http://www.w3.org/TR/2001/REC-SVG-20010904/DTD/svg10.dtd">
<svg version="1.0" xmlns="http://www.w3.org/2000/svg"
 width="1080.000000pt" height="1920.000000pt" viewBox="0 0 1080.000000 1920.000000"
 preserveAspectRatio="xMidYMid meet">
<metadata>
Created by potrace 1.13, written by Peter Selinger 2001-2015
</metadata>
<g transform="translate(0.000000,1920.000000) scale(0.100000,-0.100000)"
fill="#000000" stroke="none">
<path d="M3262 14610 c-32 -77 -161 -525 -221 -765 -27 -110 -81 -351 -121
-535 -39 -184 -74 -338 -78 -342 -4 -4 -122 -71 -262 -148 -489 -272 -768
-447 -795 -501 -19 -36 -6 -38 26 -3 27 31 186 136 369 246 154 93 652 370
656 365 2 -2 -19 -118 -47 -258 -70 -358 -120 -636 -179 -989 -99 -596 -172
-979 -300 -1581 -39 -179 -70 -328 -70 -332 0 -14 -337 -212 -535 -315 -272
-141 -387 -208 -445 -260 -36 -33 -43 -43 -32 -53 17 -18 136 45 434 232 215
135 543 317 553 307 8 -8 -358 -1628 -461 -2043 -91 -363 -305 -1114 -476
-1667 l-61 -197 -251 -218 c-349 -304 -491 -422 -625 -521 -239 -176 -263
-194 -257 -199 13 -13 252 156 451 318 66 53 242 203 390 332 149 129 271 234
272 233 5 -4 -74 -220 -122 -337 -53 -129 -87 -199 -127 -256 -20 -30 -25 -43
-15 -43 8 0 21 8 29 18 47 52 151 288 238 538 l42 122 126 103 c518 426 877
680 2392 1690 1862 1241 2348 1595 2809 2044 267 260 514 575 613 780 36 76
42 99 46 170 10 194 -82 312 -301 384 -187 61 -362 83 -652 83 -403 -1 -836
-71 -1413 -227 -824 -224 -1437 -467 -2415 -957 -99 -49 -181 -88 -183 -86 -4
5 245 160 711 441 519 313 624 380 966 609 580 387 1616 1146 2149 1573 608
487 928 845 981 1093 15 71 2 156 -35 237 -85 185 -371 307 -776 330 -128 7
-435 -8 -635 -31 -388 -44 -807 -136 -1205 -266 -412 -134 -621 -231 -1238
-574 -162 -90 -297 -163 -298 -161 -4 4 101 505 151 717 48 207 102 406 186
690 69 232 85 317 41 210z m3248 -638 c349 -73 524 -210 538 -425 3 -59 0 -85
-20 -143 -81 -233 -416 -589 -973 -1033 -396 -317 -1263 -960 -1775 -1318
-445 -310 -698 -473 -1290 -830 -201 -121 -445 -270 -542 -331 -98 -61 -178
-109 -178 -107 0 3 20 100 46 217 139 652 203 985 305 1588 111 655 241 1346
256 1361 4 4 154 90 333 189 540 301 832 438 1185 553 477 157 972 259 1435
296 191 16 568 6 680 -17z m150 -3007 c226 -34 398 -100 469 -181 64 -73 93
-190 71 -286 -43 -183 -299 -536 -627 -860 -470 -466 -980 -838 -2838 -2072
-1398 -929 -1878 -1267 -2364 -1669 -58 -48 -107 -85 -109 -82 -2 2 8 39 22
82 14 43 80 263 146 488 310 1049 377 1315 680 2685 72 322 132 595 135 608 4
17 56 48 253 146 310 155 606 296 832 396 873 387 1972 698 2680 760 149 12
524 4 650 -15z"/>
</g>
</svg>
